<?xml version="1.0" standalone="no"?>
<!DOCTYPE svg PUBLIC "-//W3C//DTD SVG 20010904//EN"
 "http://www.w3.org/TR/2001/REC-SVG-20010904/DTD/svg10.dtd">
<svg version="1.0" xmlns="http://www.w3.org/2000/svg"
 width="249.000000pt" height="329.000000pt" viewBox="0 0 249.000000 329.000000"
 preserveAspectRatio="xMidYMid meet">
 <defs>
    <linearGradient id="gradient" x1="0%" y1="0%" x2="100%" y2="100%">
      <stop offset="0%" stop-color="#D61142" />
      <stop offset="50%" stop-color="#DB3ADE" />
      <stop offset="100%" stop-color="#0C8EF7" />
    </linearGradient>
  </defs>

  <!-- Apply the gradient to the <g> element -->
  <g transform="translate(0.000000,329.000000) scale(0.100000,-0.100000)"
     fill="url(#gradient)" stroke="none">
<path d="M381 2900 c-63 -225 -29 -394 110 -545 38 -41 149 -130 211 -170 l27
-17 11 41 c6 23 15 41 20 41 5 0 17 15 26 33 9 17 30 47 48 65 l31 34 -33 28
c-19 15 -67 37 -110 50 -104 31 -164 62 -200 105 -29 36 -62 119 -62 156 0 11
-10 29 -22 41 -19 19 -23 37 -28 122 l-5 101 -24 -85z"/>
<path d="M1948 2883 c-3 -86 -6 -101 -25 -121 -13 -12 -23 -31 -23 -42 0 -32
-40 -128 -67 -161 -32 -37 -95 -70 -195 -99 -45 -13 -91 -34 -110 -51 l-33
-28 27 -23 c14 -13 34 -39 43 -58 10 -19 26 -43 36 -53 11 -10 19 -29 19 -42
0 -13 4 -26 8 -29 13 -8 131 74 200 139 168 155 216 327 157 560 -13 54 -27
100 -29 102 -2 3 -6 -40 -8 -94z"/>
<path d="M1143 2545 c-18 -24 -57 -61 -87 -82 -47 -33 -55 -43 -59 -78 -3 -26
1 -44 9 -51 25 -20 15 -36 -67 -121 l-81 -83 52 -57 c61 -68 102 -144 98 -181
-4 -37 -23 -38 -55 0 -76 90 -173 155 -278 188 -71 23 -132 58 -165 97 -30 36
-31 37 -19 8 19 -45 55 -91 140 -180 90 -95 114 -139 129 -231 6 -38 12 -69
13 -69 24 -12 115 -87 154 -128 49 -52 103 -141 103 -170 0 -8 6 -20 14 -26
11 -9 13 -4 10 29 -2 37 -1 39 18 29 18 -10 19 -8 13 13 -16 53 -61 121 -112
169 -29 27 -53 54 -53 59 0 36 109 -1 159 -54 22 -23 25 -24 36 -10 15 21 50
4 61 -28 6 -21 8 -20 35 13 l28 34 -6 -45 -5 -45 26 41 c32 51 95 96 141 100
32 2 34 1 22 -16 -7 -11 -39 -46 -70 -79 -65 -70 -84 -102 -93 -162 l-7 -43
31 35 32 34 -16 -48 c-9 -26 -13 -51 -10 -54 13 -14 58 44 72 95 23 77 120
187 217 247 11 6 20 35 27 79 14 92 39 136 129 231 91 95 126 139 141 180 11
29 10 29 -20 -8 -36 -42 -68 -61 -185 -106 -118 -45 -182 -90 -257 -179 -17
-21 -32 -30 -42 -26 -41 16 2 118 83 202 61 62 62 58 -38 157 -72 71 -82 89
-57 109 9 7 12 25 9 52 -4 37 -10 45 -55 74 -27 18 -66 54 -86 81 -21 26 -39
48 -42 48 -3 0 -20 -20 -37 -44z"/>
<path d="M1678 1702 c-9 -26 -26 -90 -38 -142 -23 -106 -54 -167 -105 -206
-19 -14 -33 -30 -30 -34 2 -4 -14 -22 -36 -40 -43 -34 -79 -85 -79 -110 0 -10
8 -6 23 12 37 44 97 65 97 33 0 -8 -15 -38 -34 -67 -51 -81 -80 -144 -114
-248 -32 -101 -62 -203 -62 -215 0 -4 18 9 40 29 23 20 61 46 85 58 43 21 45
24 45 66 0 33 -3 43 -13 39 -32 -12 -40 8 -29 73 15 80 50 157 97 209 45 50
68 63 90 54 14 -5 16 -15 12 -57 l-6 -51 42 46 c28 30 50 69 66 115 14 38 31
80 40 92 8 13 15 34 16 46 0 12 17 42 37 67 66 81 127 208 81 167 -10 -9 -36
-25 -58 -36 -35 -18 -41 -26 -52 -72 -23 -99 -94 -184 -132 -160 -11 6 -10 17
4 56 13 39 39 310 31 321 -1 2 -9 -19 -18 -45z"/>
<path d="M665 1705 c3 -22 6 -80 9 -130 3 -49 12 -114 21 -144 19 -63 9 -79
-36 -55 -44 22 -83 93 -103 184 -4 17 -21 33 -58 52 -28 15 -54 26 -56 23 -6
-6 54 -109 96 -163 20 -26 37 -57 37 -69 1 -12 6 -28 12 -35 6 -7 25 -51 43
-96 29 -75 79 -152 100 -152 4 0 5 20 3 43 -4 35 -2 45 12 50 56 22 162 -127
187 -263 10 -50 9 -63 -2 -70 -7 -4 -19 -6 -27 -3 -10 4 -13 -6 -13 -39 0 -43
2 -46 43 -64 23 -10 61 -36 84 -57 l41 -38 -14 63 c-36 151 -96 300 -170 416
-38 59 -40 67 -18 76 19 7 49 -8 88 -43 l28 -26 -21 43 c-12 23 -39 55 -61 70
-22 15 -39 32 -40 38 0 5 -16 26 -36 45 -56 54 -71 87 -104 223 -33 138 -52
189 -45 121z"/>
<path d="M1492 1490 c-55 -81 -55 -107 -1 -55 52 51 61 68 51 96 -8 20 -12 16
-50 -41z"/>
<path d="M820 1514 c0 -22 11 -41 41 -69 37 -36 40 -37 34 -15 -12 40 -31 73
-54 94 -21 19 -21 19 -21 -10z"/>
<path d="M1138 1252 c-2 -9 2 -37 9 -61 26 -90 7 -120 -47 -75 -28 24 -30 24
-30 6 0 -11 18 -46 40 -78 42 -62 51 -108 24 -118 -18 -7 -29 -2 -62 27 l-23
21 15 -41 c8 -23 31 -72 50 -109 22 -40 36 -81 36 -103 0 -47 12 -65 37 -57
15 5 22 19 27 55 3 26 23 83 44 127 22 43 42 92 46 108 l7 29 -31 -26 c-64
-55 -82 8 -25 89 20 28 35 61 35 77 l0 28 -30 -23 c-45 -33 -58 -15 -42 58 13
63 5 96 -17 70 -17 -20 -26 -20 -45 -1 -13 13 -15 13 -18 -3z"/>
</g>
</svg>
