<svg xmlns="http://www.w3.org/2000/svg"  viewBox="0 0 48 48" width="240px" height="240px" baseProfile="basic" fill="url(#gTN3BY4aRov8yoX_HP084a)"><linearGradient id="gTN3BY4aRov8yoX_HP084a" x1="9.422" x2="36.928" y1="8.565" y2="37.688" gradientUnits="userSpaceOnUse"><stop offset="0" stop-color="#c72cce"/><stop offset="1" stop-color="#fe5b5b"/></linearGradient><path fill="url(#gTN3BY4aRov8yoX_HP084a)" d="M29.393,43H18.607C11.092,43,5,36.908,5,29.393V18.607C5,11.092,11.092,5,18.607,5h10.787 C36.908,5,43,11.092,43,18.607v10.787C43,36.908,36.908,43,29.393,43z"/><path fill="#222220" d="M28.303,36h-8.605c-3.169,0-5.791-2.464-5.989-5.626l-0.707-11.312 C12.966,18.487,13.423,18,14,18h4c0-3.309,2.691-6,6-6s6,2.691,6,6h4c0.577,0,1.034,0.487,0.998,1.062l-0.707,11.312 C34.093,33.537,31.471,36,28.303,36z M15.064,20l0.641,10.249C15.837,32.353,17.591,34,19.697,34h8.605 c2.106,0,3.86-1.647,3.992-3.751L32.936,20H28v-2v2H15.064z M22,18h4c0-1.103-0.897-2-2-2S22,16.897,22,18z" opacity=".05"/><path fill="#030000" d="M28.302,35.5h-8.605c-2.905,0-5.308-2.258-5.49-5.157l-0.674-10.78 c-0.036-0.576,0.421-1.062,0.998-1.062H18.5v-0.254c0-2.871,2.093-5.44,4.95-5.719c3.278-0.32,6.05,2.259,6.05,5.473v0.5h3.968 c0.577,0,1.034,0.487,0.998,1.062l-0.674,10.78C33.611,33.242,31.207,35.5,28.302,35.5z M14.532,19.5l0.674,10.78 c0.148,2.366,2.121,4.22,4.491,4.22h8.605c2.37,0,4.343-1.854,4.491-4.22l0.674-10.78H28.5V18c0-2.481-2.019-4.5-4.5-4.5 s-4.5,2.019-4.5,4.5v1.5H14.532z M27.5,19.5h-7V18c0-1.93,1.57-3.5,3.5-3.5s3.5,1.57,3.5,3.5V19.5z M21.5,18.5h5V18 c0-1.379-1.121-2.5-2.5-2.5s-2.5,1.121-2.5,2.5V18.5z" opacity=".07"/><path fill="#fff" d="M29,19l0-0.777c0-2.61-1.903-4.945-4.5-5.199C21.52,12.733,19,15.078,19,18v1h-3.936 c-0.577,0-1.034,0.487-0.998,1.062l0.641,10.249c0.165,2.635,2.35,4.688,4.99,4.688h8.605c2.64,0,4.826-2.053,4.99-4.688 l0.641-10.249C33.97,19.487,33.512,19,32.936,19H29z M21,18c0-1.654,1.346-3,3-3s3,1.346,3,3v1h-6V18z"/></svg>