<svg xmlns="http://www.w3.org/2000/svg" viewBox="0 0 1440 320"><path fill="#911EC7" fill-opacity="1" d="M0,288L12.6,245.3C25.3,203,51,117,76,101.3C101.1,85,126,139,152,181.3C176.8,224,202,256,227,234.7C252.6,213,278,139,303,112C328.4,85,354,107,379,117.3C404.2,128,429,128,455,144C480,160,505,192,531,197.3C555.8,203,581,181,606,170.7C631.6,160,657,160,682,154.7C707.4,149,733,139,758,160C783.2,181,808,235,834,250.7C858.9,267,884,245,909,213.3C934.7,181,960,139,985,101.3C1010.5,64,1036,32,1061,64C1086.3,96,1112,192,1137,224C1162.1,256,1187,224,1213,224C1237.9,224,1263,256,1288,245.3C1313.7,235,1339,181,1364,176C1389.5,171,1415,213,1427,234.7L1440,256L1440,320L1427.4,320C1414.7,320,1389,320,1364,320C1338.9,320,1314,320,1288,320C1263.2,320,1238,320,1213,320C1187.4,320,1162,320,1137,320C1111.6,320,1086,320,1061,320C1035.8,320,1011,320,985,320C960,320,935,320,909,320C884.2,320,859,320,834,320C808.4,320,783,320,758,320C732.6,320,707,320,682,320C656.8,320,632,320,606,320C581.1,320,556,320,531,320C505.3,320,480,320,455,320C429.5,320,404,320,379,320C353.7,320,328,320,303,320C277.9,320,253,320,227,320C202.1,320,177,320,152,320C126.3,320,101,320,76,320C50.5,320,25,320,13,320L0,320Z"></path></svg>